<svg width="85" height="17" viewBox="0 0 85 17" fill="none" xmlns="http://www.w3.org/2000/svg">
<g id="Group 333">
<path id="Vector" d="M0.34363 7.98486L6.98426 1.34424C7.44324 0.885254 8.18543 0.885254 8.63953 1.34424L9.74304 2.44775C10.202 2.90674 10.202 3.64893 9.74304 4.10303L5.0409 8.81494L9.74793 13.522C10.2069 13.981 10.2069 14.7231 9.74793 15.1772L8.64441 16.2856C8.18543 16.7446 7.44324 16.7446 6.98914 16.2856L0.348513 9.64502C-0.115354 9.18604 -0.115354 8.44385 0.34363 7.98486Z" fill="#ADADAD"/>
<path id="Vector_2" d="M83.7482 6.98486L77.1075 0.344238C76.6486 -0.114746 75.9064 -0.114746 75.4523 0.344238L74.3488 1.44775C73.8898 1.90674 73.8898 2.64893 74.3488 3.10303L79.0509 7.81494L74.3439 12.522C73.8849 12.981 73.8849 13.7231 74.3439 14.1772L75.4474 15.2856C75.9064 15.7446 76.6486 15.7446 77.1027 15.2856L83.7433 8.64502C84.2072 8.18604 84.2072 7.44385 83.7482 6.98486Z" fill="#ADADAD"/>
</g>
</svg>
