<svg width="22" height="24" viewBox="0 0 22 24" fill="none" xmlns="http://www.w3.org/2000/svg">
<g id="google-play-store logo" clip-path="url(#clip0_41_1548)">
<path id="Vector" d="M13.7729 7.31461L0.791038 0.0668766C0.62791 -0.0256477 0.422684 -0.0205074 0.264819 0.0720168C0.101691 0.164541 0.00170898 0.329029 0.00170898 0.514077C0.00170898 0.514077 0.00697118 1.18231 0.0122334 2.28232L9.46839 11.5193L13.7729 7.31461Z" fill="url(#paint0_linear_41_1548)"/>
<path id="Vector_2" d="M0.0123901 2.28235C0.0281767 6.25061 0.0755365 15.8834 0.0965852 20.6792L9.47381 11.5194L0.0123901 2.28235Z" fill="url(#paint1_linear_41_1548)"/>
<path id="Vector_3" d="M21.2032 11.4629L13.773 7.3147L9.46326 11.5194L14.3255 16.269L21.2085 12.3521C21.3716 12.2596 21.4716 12.09 21.4716 11.9101C21.4716 11.725 21.3663 11.5554 21.2032 11.4629Z" fill="url(#paint2_linear_41_1548)"/>
<path id="Vector_4" d="M0.0913086 20.6793C0.101833 22.391 0.107095 23.4859 0.107095 23.4859C0.107095 23.6709 0.207077 23.8405 0.370205 23.9279C0.533333 24.0204 0.733296 24.0204 0.896424 23.9279L14.3308 16.2741L9.46854 11.5245L0.0913086 20.6793Z" fill="url(#paint3_linear_41_1548)"/>
</g>
<defs>
<linearGradient id="paint0_linear_41_1548" x1="0.00170898" y1="5.76195" x2="13.7753" y2="5.76195" gradientUnits="userSpaceOnUse">
<stop stop-color="#63BE6B"/>
<stop offset="0.506" stop-color="#5BBC6A"/>
<stop offset="1" stop-color="#4AB96A"/>
</linearGradient>
<linearGradient id="paint1_linear_41_1548" x1="0.00986428" y1="11.483" x2="9.46834" y2="11.483" gradientUnits="userSpaceOnUse">
<stop stop-color="#3EC6F2"/>
<stop offset="1" stop-color="#45AFE3"/>
</linearGradient>
<linearGradient id="paint2_linear_41_1548" x1="9.46831" y1="11.7951" x2="21.4703" y2="11.7951" gradientUnits="userSpaceOnUse">
<stop stop-color="#FAA51A"/>
<stop offset="0.387" stop-color="#FAB716"/>
<stop offset="0.741" stop-color="#FAC412"/>
<stop offset="1" stop-color="#FAC80F"/>
</linearGradient>
<linearGradient id="paint3_linear_41_1548" x1="0.093624" y1="17.7607" x2="14.3306" y2="17.7607" gradientUnits="userSpaceOnUse">
<stop stop-color="#EC3B50"/>
<stop offset="1" stop-color="#E7515B"/>
</linearGradient>
<clipPath id="clip0_41_1548">
<rect width="21.4735" height="23.9998" fill="white"/>
</clipPath>
</defs>
</svg>
