<svg width="19" height="23" viewBox="0 0 19 23" fill="none" xmlns="http://www.w3.org/2000/svg">
<path id="Vector" d="M18.6018 17.924C18.2607 18.7275 17.8569 19.4672 17.3891 20.1472C16.7514 21.0743 16.2292 21.716 15.8268 22.0724C15.2031 22.6573 14.5347 22.9569 13.8191 22.9739C13.3053 22.9739 12.6857 22.8248 11.9645 22.5224C11.2409 22.2214 10.5759 22.0724 9.96783 22.0724C9.33013 22.0724 8.64621 22.2214 7.91467 22.5224C7.18202 22.8248 6.5918 22.9824 6.14054 22.998C5.45425 23.0278 4.77019 22.7198 4.08738 22.0724C3.65158 21.6848 3.10647 21.0204 2.45346 20.0791C1.75283 19.0739 1.17681 17.9084 0.725553 16.5795C0.242269 15.1442 0 13.7543 0 12.4087C0 10.8673 0.326645 9.5379 0.98091 8.42385C1.4951 7.52901 2.17917 6.82313 3.03532 6.30493C3.89148 5.78674 4.81655 5.52268 5.81278 5.50578C6.35789 5.50578 7.07272 5.67771 7.96104 6.0156C8.84685 6.35463 9.41562 6.52655 9.66499 6.52655C9.85143 6.52655 10.4833 6.32552 11.5544 5.92474C12.5673 5.55306 13.4222 5.39916 14.1226 5.45978C16.0204 5.61595 17.4461 6.37876 18.3943 7.75304C16.6971 8.80164 15.8575 10.2703 15.8742 12.1544C15.8895 13.622 16.4116 14.8432 17.4378 15.8129C17.9028 16.2629 18.4222 16.6108 19 16.8578C18.8747 17.2283 18.7424 17.5833 18.6018 17.924ZM14.2493 0.460131C14.2493 1.61039 13.8372 2.68439 13.0157 3.67847C12.0243 4.86024 10.8252 5.54312 9.52492 5.43536C9.50836 5.29737 9.49875 5.15213 9.49875 4.99951C9.49875 3.89526 9.9702 2.71349 10.8074 1.74724C11.2254 1.25801 11.757 0.851219 12.4017 0.526715C13.0449 0.207053 13.6534 0.0302728 14.2256 0C14.2423 0.153772 14.2493 0.307554 14.2493 0.460116V0.460131Z" fill="white"/>
</svg>
